<svg xmlns="http://www.w3.org/2000/svg" viewBox="0 0 1270 530">
  <defs>
    <linearGradient id="a" x1="88%" x2="25%" y1="84%" y2="15%">
      <stop stop-color="#14BADC" offset="0%" />
      <stop stop-color="#6D4DD9" offset="100%" />
    </linearGradient>
  </defs>
  <path fill="url(#a)" d="M1134 8c-30-10-61 3-91 39-45 53-120-18-194-10-74 9-87-48-182-35-95 12-103 67-189 77s-118 33-205 42c-87 10-94-9-141 16C86 161 0 207 0 247s109 115 132 123c23 7 33 33 33 51s-35 74 6 67c42-8 104-37 199-47 94-10 149 8 211 1 63-9 119-45 195-56 75-12 118 134 251 137 90 2 167-69 231-218 16-64 16-121 0-170s-57-92-124-127z"/>
</svg>
