<svg width="49" height="26" xmlns="http://www.w3.org/2000/svg"><path d="M47.646 24.637H1.813a.43.43 0 0 1-.459-.459V1.628a.43.43 0 0 1 .459-.458h45.833a.43.43 0 0 1 .458.458v22.55a.43.43 0 0 1-.458.459zM2.27 23.72h44.917V2.087H2.27V23.72zm8.892-3.392l6.004-14.575a.495.495 0 1 0-.917-.366l-5.958 14.575a.477.477 0 0 0 .275.641h.183a.504.504 0 0 0 .413-.275zm5.225 0l5.958-14.575a.495.495 0 0 0-.917-.366l-5.958 14.575a.477.477 0 0 0 .275.641h.183a.504.504 0 0 0 .459-.275zM6.029 9.878a.917.917 0 1 0 1.834 0 .917.917 0 0 0-1.834 0zm0 6.05a.917.917 0 1 0 1.834 0 .917.917 0 0 0-1.834 0z" stroke="#6D4DD9" stroke-width="1.38" fill="none"/></svg>