<svg width="54" height="33" xmlns="http://www.w3.org/2000/svg"><path d="M45.642 1.568H8.645a7.178 7.178 0 0 0-7.168 7.168V8.8a7.178 7.178 0 0 0 7.168 7.168h18.022v11.303a2.512 2.512 0 0 0-2.026 2.154h-4.602a.458.458 0 0 0 0 .917h4.703a2.493 2.493 0 0 0 4.84 0h4.702a.458.458 0 1 0 0-.917h-4.638a2.512 2.512 0 0 0-2.063-2.154V15.968h18.059a7.205 7.205 0 1 0 0-14.4zM28.747 29.737c0 .208-.043.414-.128.605a1.577 1.577 0 0 1-2.915 0 1.494 1.494 0 0 1-.128-.605 1.714 1.714 0 0 1 0-.312 1.568 1.568 0 0 1 1.09-1.2c.296-.111.622-.111.917 0 .562.163.987.626 1.1 1.2.031.102.053.206.064.312zM45.642 15.07H8.645A6.26 6.26 0 0 1 2.393 8.8v-.064a6.26 6.26 0 0 1 6.252-6.252h36.997a6.288 6.288 0 1 1 0 12.568v.018zm-1.513-6.28a.458.458 0 0 1-.458.46H29.417a.468.468 0 0 1-.459-.46c0-.252.206-.457.459-.457H43.67c.246 0 .448.194.458.44v.018zM17.207 6.317a2.75 2.75 0 0 1 1.008 0 2.337 2.337 0 0 0-1.008 0zm-7.04-.055a2.512 2.512 0 1 0-.019 5.023 2.512 2.512 0 0 0 .019-5.023zm0 4.097a1.595 1.595 0 1 1 1.585-1.585 1.586 1.586 0 0 1-1.585 1.585zm9.331-3.355a3.08 3.08 0 0 0-.376-.311 3.208 3.208 0 0 0-.43-.23 2.53 2.53 0 0 0-.468-.146 2.75 2.75 0 0 0-1.008 0 2.75 2.75 0 0 0-.468.147 2.503 2.503 0 0 0-.22 4.51c.146.073.296.137.45.192.158.048.32.081.485.1h.514a2.86 2.86 0 0 0 .485-.1 3.31 3.31 0 0 0 .45-.192 2.493 2.493 0 0 0 1.32-2.19 2.53 2.53 0 0 0-.743-1.78h.01zm-1.787 3.355a1.586 1.586 0 1 1 .073-3.17 1.586 1.586 0 0 1-.073 3.17z" stroke="#6D4DD9" stroke-width="1.38" fill="none"/></svg>