<svg width="2083" height="1527" xmlns="http://www.w3.org/2000/svg">
    <g transform="translate(0 -8)" fill="#FFF" fill-rule="nonzero" fill-opacity=".4">
        <path d="M474.406 1149c160.163 0 290-129.837 290-290 0-95.051 6.96-199.376-63.699-252.266-48.401-36.23-161.19-37.734-226.3-37.734C314.243 569 0 598.056 0 758.219c0 62.754 56.912 242.784 103.79 283.383C227.796 1149 376.997 1149 474.405 1149zM1770.808 385.64c-127.912-96.388-309.743-70.834-406.131 57.078-57.204 75.911-125.546 155.04-100.945 239.803 16.851 58.063 106.023 127.143 158.023 166.327 127.911 96.389 396.364 262.3 492.752 134.388 37.767-50.117 100.66-228.147 87.655-288.781-34.403-160.402-153.56-250.193-231.354-308.815z"/>
        <path d="M1132.261 8.889c-160.138-2.795-512.168-.87-512.168 159.327 0 528.093 622.89 430.357 795.66 348.122 214.009-101.863 131.356-352.189 85.194-393.599C1378.833 13.193 1229.654 10.59 1132.261 8.89zM1522.261 827.889c-160.138-2.795-512.168-.87-512.168 159.327 0 528.093 622.89 430.357 795.66 348.122 214.009-101.863 131.356-352.189 85.194-393.599-122.114-109.546-271.293-112.15-368.686-113.85z"/>
        <circle cx="565" cy="590" r="322"/>
        <circle cx="955" cy="1052" r="483"/>
        <path d="M1861 1527.094c122.607 0 222-99.393 222-222S1897.607 1106 1775 1106s-136 76.487-136 199.094 99.393 222 222 222zM395 1029.094c83.947 0 152-68 152-151.883C547 793.33 420.064 741 336.117 741S243 793.329 243 877.211c0 83.883 68.053 151.883 152 151.883z"/>
    </g>
</svg>
