<svg width="49" height="49" xmlns="http://www.w3.org/2000/svg"><path d="M46.008 37.928L32.656 24.576a16.232 16.232 0 0 0 1.48-6.824.392.392 0 0 0-.4-.4.4.4 0 0 0-.4.4 15.72 15.72 0 0 1-30.96 3.832L10.96 13l10.76 10.768c.078.074.18.117.288.12a.376.376 0 0 0 .28-.12L38.08 7.976v3.776a.4.4 0 1 0 .8 0V7.024a.4.4 0 0 0-.4-.4h-4.736a.4.4 0 0 0-.4.4c.004.22.18.396.4.4h3.752L22.008 22.92 11.24 12.152a.408.408 0 0 0-.568 0l-8.496 8.496a15 15 0 0 1-.264-2.896A15.712 15.712 0 0 1 29.368 7.304a.4.4 0 0 0 .56 0 .4.4 0 0 0 .04-.568 16.52 16.52 0 1 0-12.344 27.528 16.256 16.256 0 0 0 6.752-1.448l13.368 13.368a5.904 5.904 0 0 0 8.264 0 5.912 5.912 0 0 0 0-8.256zm-.576 7.688a5.072 5.072 0 0 1-7.112 0L25.144 32.448a16.456 16.456 0 0 0 7.136-7.104l13.152 13.152a5.08 5.08 0 0 1 0 7.12z" stroke="#6D4DD9" stroke-width="1.38" fill="none"/></svg>