<svg width="52" height="58" xmlns="http://www.w3.org/2000/svg"><g transform="translate(.75 1)" stroke="#6D4DD9" stroke-width="1.38" fill="none"><path d="M34.072 41.617H16.115a2.062 2.062 0 0 1-2.062-2.063V28.655a2.062 2.062 0 0 1 2.062-2.072h17.957c1.14 0 2.063.924 2.063 2.063v10.908c0 1.14-.923 2.063-2.063 2.063zM16.115 27.5c-.633 0-1.146.513-1.146 1.146v10.908c0 .633.513 1.146 1.146 1.146h17.957a1.146 1.146 0 0 0 1.146-1.146V28.655a1.146 1.146 0 0 0-1.146-1.155H16.115z"/><path d="M33.248 27.5H28.48v-4.29a3.392 3.392 0 1 0-6.774 0v4.29H16.94v-4.29a8.158 8.158 0 1 1 16.308 0v4.29zm-3.85-.917h2.933V23.21a7.242 7.242 0 1 0-14.474 0v3.373h2.933V23.21a4.308 4.308 0 1 1 8.608 0v3.373z"/><path d="M24.98 55.44h-.102c-6.416-1.384-15.271-7.086-19.91-15.327C.385 32.02.385 21.551.385 11.431c0-.253.205-.458.458-.458C12.641 11 24.558.595 24.677.486a.468.468 0 0 1 .605 0c.119.11 12.045 10.541 23.833 10.541.253 0 .458.206.458.459 0 10.01-.394 20.478-5.06 28.618-4.666 8.14-13.255 13.796-19.424 15.318l-.11.018zM1.31 11.917c0 9.863.065 20.01 4.456 27.775 4.39 7.764 13.172 13.511 19.25 14.85 5.967-1.513 14.29-7.086 18.746-14.85 4.455-7.765 4.867-18.004 4.886-27.775-11.065-.22-21.716-8.819-23.669-10.478-1.962 1.65-12.622 10.203-23.668 10.478z"/></g></svg>