<svg width="44" height="55" xmlns="http://www.w3.org/2000/svg"><path d="M21.73 1.595a20.89 20.89 0 0 0-20.9 20.9v13.017a17.774 17.774 0 0 0 7.516 14.483l5.82 4.088c.184.092.184.092.276.092a.504.504 0 0 0 .458-.275c.074-.14.106-.3.092-.458 0-.184-.092-.275-.275-.367l-5.592-3.942a16.5 16.5 0 0 1-6.508-9.441l-.184-.734.642.459c.846.628 1.88.95 2.933.916H8.85a.532.532 0 0 0 .55-.55V23.595a.532.532 0 0 0-.55-.55H6.008a5.353 5.353 0 0 0-3.483 1.375l-.458.458v-2.383c0-10.885 8.823-19.708 19.708-19.708 10.885 0 19.708 8.823 19.708 19.708v2.383l-.458-.458a4.922 4.922 0 0 0-3.483-1.375H34.7a.532.532 0 0 0-.55.55V39.82a.486.486 0 0 0 .55.55h2.842a5.124 5.124 0 0 0 5.133-5.133V22.403A20.873 20.873 0 0 0 21.729 1.595zM2.02 28.178c0-1.06.412-2.078 1.147-2.841a4.024 4.024 0 0 1 2.841-1.192H8.3v15.033H6.008a3.914 3.914 0 0 1-3.941-3.941l-.046-7.059zm39.418 7.059a3.914 3.914 0 0 1-3.942 3.941H35.25V24.145h2.292a3.914 3.914 0 0 1 3.941 3.942l-.045 7.15zm-29.059 5.041a.43.43 0 0 1-.458-.458V23.595a.458.458 0 1 1 .917 0V39.82a.43.43 0 0 1-.459.458zm3.942 11.55a.34.34 0 0 1-.275-.091l-4.583-3.209a.458.458 0 0 1 .55-.733l4.583 3.208a.45.45 0 0 1 .092.642c0 .183-.184.183-.367.183zm14.667-11.55a.43.43 0 0 1-.459-.458V23.595a.458.458 0 1 1 .917 0V39.82a.43.43 0 0 1-.458.458z" stroke="#6D4DD9" stroke-width="1.38" fill="none"/></svg>